<svg xmlns="http://www.w3.org/2000/svg" width="640" height="1100" viewBox="0 0 640 1100">
<defs>
<filter id="edge" x="-10%" y="-10%" width="120%" height="120%" color-interpolation-filters="sRGB">
<feColorMatrix type="matrix" values="0 0 0 0 0.15  0 0 0 0 0.10  0 0 0 0 0.05  0 0 0 1 0"/>
</filter>
<filter id="paper" x="-25%" y="-25%" width="150%" height="150%" color-interpolation-filters="sRGB">
<feGaussianBlur in="SourceAlpha" stdDeviation="2.6" result="sb"/>
<feOffset in="sb" dx="0" dy="3" result="so"/>
<feFlood flood-color="#000000" flood-opacity="0.30" result="sc"/>
<feComposite in="sc" in2="so" operator="in" result="sd"/>
<feMerge result="base"><feMergeNode in="sd"/><feMergeNode in="SourceGraphic"/></feMerge>
<feTurbulence type="fractalNoise" baseFrequency="0.9" numOctaves="4" seed="19004" result="nt"/>
<feColorMatrix in="nt" type="matrix" values="1 0 0 0 0  1 0 0 0 0  1 0 0 0 0  0 0 0 0 0.5" result="nc"/>
<feComposite in="nc" in2="SourceAlpha" operator="in" result="nx"/>
<feBlend in="nx" in2="base" mode="overlay"/>
</filter>
</defs>
<g filter="url(#paper)"><g><g transform="translate(3.4 4.4)" filter="url(#edge)" opacity="0.55"><path d="M 114.64 1084.29 Q 125.63 633.92 133.26 183.47 L 115.99 183.04 Q 125.63 633.92 90.65 1083.71 Z" fill="#5E7A32"/><path d="M 169.54 1083.62 Q 154.96 623.73 137.01 163.94 L 119.74 164.49 Q 154.96 623.73 145.55 1084.38 Z" fill="#78923E"/><path d="M 236.74 1083.86 Q 231.58 640.48 223.06 197.13 L 205.78 197.33 Q 231.58 640.48 212.74 1084.14 Z" fill="#5E7A32"/><path d="M 308.16 1083.91 Q 304.46 580.99 297.4 78.09 L 280.12 78.22 Q 304.46 580.99 284.16 1084.09 Z" fill="#78923E"/><path d="M 364.93 1083.93 Q 361.93 592.95 355.56 101.99 L 338.28 102.1 Q 361.93 592.95 340.93 1084.07 Z" fill="#5E7A32"/><path d="M 427.33 1084.34 Q 440.23 630.65 449.77 176.86 L 432.5 176.37 Q 440.23 630.65 403.34 1083.66 Z" fill="#78923E"/><path d="M 490.49 1084.16 Q 496.84 602.8 499.83 121.4 L 482.55 121.17 Q 496.84 602.8 466.49 1083.84 Z" fill="#5E7A32"/><path d="M 548.86 1083.93 Q 546.12 581.91 540.03 79.91 L 522.75 80.01 Q 546.12 581.91 524.86 1084.07 Z" fill="#78923E"/><path d="M0 0 C0.5 0.33 0.52 0.78 0 1 C-0.52 0.78 -0.5 0.33 0 0 Z" fill="#97AE56" transform="translate(115.4 233.26) rotate(-63.01) scale(113.34 17.42)"/><path d="M0 0 C0.5 0.33 0.52 0.78 0 1 C-0.52 0.78 -0.5 0.33 0 0 Z" fill="#5E8B39" transform="translate(130.04 289.02) rotate(47.39) scale(128 13.58)"/><path d="M0 0 C0.5 0.33 0.52 0.78 0 1 C-0.52 0.78 -0.5 0.33 0 0 Z" fill="#97AE56" transform="translate(112.68 344.79) rotate(-58.1) scale(137.28 17.62)"/><path d="M0 0 C0.5 0.33 0.52 0.78 0 1 C-0.52 0.78 -0.5 0.33 0 0 Z" fill="#5E8B39" transform="translate(127.32 400.56) rotate(60.69) scale(116.77 13.15)"/><path d="M0 0 C0.5 0.33 0.52 0.78 0 1 C-0.52 0.78 -0.5 0.33 0 0 Z" fill="#97AE56" transform="translate(109.96 456.33) rotate(-39.17) scale(134.29 14.76)"/><path d="M0 0 C0.5 0.33 0.52 0.78 0 1 C-0.52 0.78 -0.5 0.33 0 0 Z" fill="#5E8B39" transform="translate(124.6 512.09) rotate(44.91) scale(131.88 18.89)"/><path d="M0 0 C0.5 0.33 0.52 0.78 0 1 C-0.52 0.78 -0.5 0.33 0 0 Z" fill="#97AE56" transform="translate(107.24 567.86) rotate(-38.24) scale(119.3 13.33)"/><path d="M0 0 C0.5 0.33 0.52 0.78 0 1 C-0.52 0.78 -0.5 0.33 0 0 Z" fill="#5E8B39" transform="translate(121.88 623.63) rotate(66.03) scale(137.02 14.85)"/><path d="M0 0 C0.5 0.33 0.52 0.78 0 1 C-0.52 0.78 -0.5 0.33 0 0 Z" fill="#97AE56" transform="translate(104.52 679.4) rotate(-68.39) scale(106.82 18.01)"/><path d="M0 0 C0.5 0.33 0.52 0.78 0 1 C-0.52 0.78 -0.5 0.33 0 0 Z" fill="#5E8B39" transform="translate(119.16 735.16) rotate(54.78) scale(142.25 16.53)"/><path d="M0 0 C0.5 0.33 0.52 0.78 0 1 C-0.52 0.78 -0.5 0.33 0 0 Z" fill="#97AE56" transform="translate(101.8 790.93) rotate(-54.49) scale(111.24 16.81)"/><path d="M0 0 C0.5 0.33 0.52 0.78 0 1 C-0.52 0.78 -0.5 0.33 0 0 Z" fill="#5E8B39" transform="translate(116.43 846.7) rotate(55.72) scale(132.25 15.8)"/><path d="M0 0 C0.5 0.33 0.52 0.78 0 1 C-0.52 0.78 -0.5 0.33 0 0 Z" fill="#97AE56" transform="translate(99.07 902.47) rotate(-49.93) scale(112.98 15.89)"/><path d="M0 0 C0.5 0.33 0.52 0.78 0 1 C-0.52 0.78 -0.5 0.33 0 0 Z" fill="#5E8B39" transform="translate(113.71 958.23) rotate(43.75) scale(130.81 18.74)"/><path d="M0 0 C0.5 0.33 0.52 0.78 0 1 C-0.52 0.78 -0.5 0.33 0 0 Z" fill="#97AE56" transform="translate(121.96 214.22) rotate(-66.5) scale(142.13 15.04)"/><path d="M0 0 C0.5 0.33 0.52 0.78 0 1 C-0.52 0.78 -0.5 0.33 0 0 Z" fill="#5E8B39" transform="translate(139.77 271.34) rotate(65.86) scale(147.64 16.29)"/><path d="M0 0 C0.5 0.33 0.52 0.78 0 1 C-0.52 0.78 -0.5 0.33 0 0 Z" fill="#97AE56" transform="translate(125.58 328.47) rotate(-62.85) scale(105.74 16.98)"/><path d="M0 0 C0.5 0.33 0.52 0.78 0 1 C-0.52 0.78 -0.5 0.33 0 0 Z" fill="#5E8B39" transform="translate(143.4 385.6) rotate(67.29) scale(119 17.02)"/><path d="M0 0 C0.5 0.33 0.52 0.78 0 1 C-0.52 0.78 -0.5 0.33 0 0 Z" fill="#97AE56" transform="translate(129.21 442.73) rotate(-74.37) scale(118.99 16.31)"/><path d="M0 0 C0.5 0.33 0.52 0.78 0 1 C-0.52 0.78 -0.5 0.33 0 0 Z" fill="#5E8B39" transform="translate(147.02 499.85) rotate(52.88) scale(133.44 14.26)"/><path d="M0 0 C0.5 0.33 0.52 0.78 0 1 C-0.52 0.78 -0.5 0.33 0 0 Z" fill="#97AE56" transform="translate(132.83 556.98) rotate(-62.49) scale(140.05 18.05)"/><path d="M0 0 C0.5 0.33 0.52 0.78 0 1 C-0.52 0.78 -0.5 0.33 0 0 Z" fill="#5E8B39" transform="translate(150.64 614.11) rotate(66.1) scale(134.12 18.3)"/><path d="M0 0 C0.5 0.33 0.52 0.78 0 1 C-0.52 0.78 -0.5 0.33 0 0 Z" fill="#97AE56" transform="translate(136.46 671.24) rotate(-60.6) scale(111.64 15.65)"/><path d="M0 0 C0.5 0.33 0.52 0.78 0 1 C-0.52 0.78 -0.5 0.33 0 0 Z" fill="#5E8B39" transform="translate(154.27 728.36) rotate(56.66) scale(143.62 14.36)"/><path d="M0 0 C0.5 0.33 0.52 0.78 0 1 C-0.52 0.78 -0.5 0.33 0 0 Z" fill="#97AE56" transform="translate(140.08 785.49) rotate(-74.19) scale(106.22 16.09)"/><path d="M0 0 C0.5 0.33 0.52 0.78 0 1 C-0.52 0.78 -0.5 0.33 0 0 Z" fill="#5E8B39" transform="translate(157.89 842.62) rotate(52.54) scale(149.75 17.12)"/><path d="M0 0 C0.5 0.33 0.52 0.78 0 1 C-0.52 0.78 -0.5 0.33 0 0 Z" fill="#97AE56" transform="translate(143.7 899.75) rotate(-52.69) scale(133.79 14.87)"/><path d="M0 0 C0.5 0.33 0.52 0.78 0 1 C-0.52 0.78 -0.5 0.33 0 0 Z" fill="#5E8B39" transform="translate(161.52 956.87) rotate(41.1) scale(149.93 14.82)"/><path d="M0 0 C0.5 0.33 0.52 0.78 0 1 C-0.52 0.78 -0.5 0.33 0 0 Z" fill="#97AE56" transform="translate(207.01 247.23) rotate(-60.01) scale(121.08 17.38)"/><path d="M0 0 C0.5 0.33 0.52 0.78 0 1 C-0.52 0.78 -0.5 0.33 0 0 Z" fill="#5E8B39" transform="translate(223.64 302) rotate(50.36) scale(150.66 18.85)"/><path d="M0 0 C0.5 0.33 0.52 0.78 0 1 C-0.52 0.78 -0.5 0.33 0 0 Z" fill="#97AE56" transform="translate(208.28 356.77) rotate(-56.12) scale(106.46 13.66)"/><path d="M0 0 C0.5 0.33 0.52 0.78 0 1 C-0.52 0.78 -0.5 0.33 0 0 Z" fill="#5E8B39" transform="translate(224.92 411.54) rotate(60.62) scale(116.27 13.76)"/><path d="M0 0 C0.5 0.33 0.52 0.78 0 1 C-0.52 0.78 -0.5 0.33 0 0 Z" fill="#97AE56" transform="translate(209.55 466.31) rotate(-51.7) scale(137.8 14.98)"/><path d="M0 0 C0.5 0.33 0.52 0.78 0 1 C-0.52 0.78 -0.5 0.33 0 0 Z" fill="#5E8B39" transform="translate(226.19 521.08) rotate(61.28) scale(121.83 15.07)"/><path d="M0 0 C0.5 0.33 0.52 0.78 0 1 C-0.52 0.78 -0.5 0.33 0 0 Z" fill="#97AE56" transform="translate(210.83 575.85) rotate(-70.74) scale(152.38 13.57)"/><path d="M0 0 C0.5 0.33 0.52 0.78 0 1 C-0.52 0.78 -0.5 0.33 0 0 Z" fill="#5E8B39" transform="translate(227.47 630.62) rotate(42.07) scale(115.49 15.94)"/><path d="M0 0 C0.5 0.33 0.52 0.78 0 1 C-0.52 0.78 -0.5 0.33 0 0 Z" fill="#97AE56" transform="translate(212.1 685.39) rotate(-50.73) scale(114.32 18.9)"/><path d="M0 0 C0.5 0.33 0.52 0.78 0 1 C-0.52 0.78 -0.5 0.33 0 0 Z" fill="#5E8B39" transform="translate(228.74 740.15) rotate(43.81) scale(138.94 14.14)"/><path d="M0 0 C0.5 0.33 0.52 0.78 0 1 C-0.52 0.78 -0.5 0.33 0 0 Z" fill="#97AE56" transform="translate(213.38 794.92) rotate(-75.48) scale(144.41 13.99)"/><path d="M0 0 C0.5 0.33 0.52 0.78 0 1 C-0.52 0.78 -0.5 0.33 0 0 Z" fill="#5E8B39" transform="translate(230.01 849.69) rotate(77.95) scale(144.2 13.86)"/><path d="M0 0 C0.5 0.33 0.52 0.78 0 1 C-0.52 0.78 -0.5 0.33 0 0 Z" fill="#97AE56" transform="translate(214.65 904.46) rotate(-79.95) scale(104.27 18.91)"/><path d="M0 0 C0.5 0.33 0.52 0.78 0 1 C-0.52 0.78 -0.5 0.33 0 0 Z" fill="#5E8B39" transform="translate(231.29 959.23) rotate(80.32) scale(110.24 16.95)"/><path d="M0 0 C0.5 0.33 0.52 0.78 0 1 C-0.52 0.78 -0.5 0.33 0 0 Z" fill="#97AE56" transform="translate(281.13 128.16) rotate(-77.74) scale(138.11 17.76)"/><path d="M0 0 C0.5 0.33 0.52 0.78 0 1 C-0.52 0.78 -0.5 0.33 0 0 Z" fill="#5E8B39" transform="translate(297.6 191.43) rotate(68.6) scale(106.08 13.88)"/><path d="M0 0 C0.5 0.33 0.52 0.78 0 1 C-0.52 0.78 -0.5 0.33 0 0 Z" fill="#97AE56" transform="translate(282.06 254.71) rotate(-40.03) scale(140.88 18.73)"/><path d="M0 0 C0.5 0.33 0.52 0.78 0 1 C-0.52 0.78 -0.5 0.33 0 0 Z" fill="#5E8B39" transform="translate(298.53 317.98) rotate(81.7) scale(130.67 18.33)"/><path d="M0 0 C0.5 0.33 0.52 0.78 0 1 C-0.52 0.78 -0.5 0.33 0 0 Z" fill="#97AE56" transform="translate(282.99 381.26) rotate(-58.38) scale(129.91 14.75)"/><path d="M0 0 C0.5 0.33 0.52 0.78 0 1 C-0.52 0.78 -0.5 0.33 0 0 Z" fill="#5E8B39" transform="translate(299.46 444.53) rotate(56.57) scale(143.35 14.77)"/><path d="M0 0 C0.5 0.33 0.52 0.78 0 1 C-0.52 0.78 -0.5 0.33 0 0 Z" fill="#97AE56" transform="translate(283.92 507.8) rotate(-48.73) scale(125.87 18.36)"/><path d="M0 0 C0.5 0.33 0.52 0.78 0 1 C-0.52 0.78 -0.5 0.33 0 0 Z" fill="#5E8B39" transform="translate(300.39 571.08) rotate(65.9) scale(137.81 13.72)"/><path d="M0 0 C0.5 0.33 0.52 0.78 0 1 C-0.52 0.78 -0.5 0.33 0 0 Z" fill="#97AE56" transform="translate(284.85 634.35) rotate(-46.41) scale(153.99 13.16)"/><path d="M0 0 C0.5 0.33 0.52 0.78 0 1 C-0.52 0.78 -0.5 0.33 0 0 Z" fill="#5E8B39" transform="translate(301.32 697.63) rotate(80.88) scale(142.28 17.28)"/><path d="M0 0 C0.5 0.33 0.52 0.78 0 1 C-0.52 0.78 -0.5 0.33 0 0 Z" fill="#97AE56" transform="translate(285.78 760.9) rotate(-55.03) scale(140.29 16.43)"/><path d="M0 0 C0.5 0.33 0.52 0.78 0 1 C-0.52 0.78 -0.5 0.33 0 0 Z" fill="#5E8B39" transform="translate(302.25 824.18) rotate(68.67) scale(128.82 18.82)"/><path d="M0 0 C0.5 0.33 0.52 0.78 0 1 C-0.52 0.78 -0.5 0.33 0 0 Z" fill="#97AE56" transform="translate(286.72 887.45) rotate(-43.05) scale(123.98 17.28)"/><path d="M0 0 C0.5 0.33 0.52 0.78 0 1 C-0.52 0.78 -0.5 0.33 0 0 Z" fill="#5E8B39" transform="translate(303.18 950.73) rotate(43.3) scale(147.14 13.97)"/><path d="M0 0 C0.5 0.33 0.52 0.78 0 1 C-0.52 0.78 -0.5 0.33 0 0 Z" fill="#97AE56" transform="translate(339.23 152.05) rotate(-59.81) scale(109.75 13.04)"/><path d="M0 0 C0.5 0.33 0.52 0.78 0 1 C-0.52 0.78 -0.5 0.33 0 0 Z" fill="#5E8B39" transform="translate(355.6 213.61) rotate(70.54) scale(120.9 18.62)"/><path d="M0 0 C0.5 0.33 0.52 0.78 0 1 C-0.52 0.78 -0.5 0.33 0 0 Z" fill="#97AE56" transform="translate(339.98 275.18) rotate(-40.85) scale(142.17 18.72)"/><path d="M0 0 C0.5 0.33 0.52 0.78 0 1 C-0.52 0.78 -0.5 0.33 0 0 Z" fill="#5E8B39" transform="translate(356.36 336.75) rotate(68.79) scale(126.13 18.33)"/><path d="M0 0 C0.5 0.33 0.52 0.78 0 1 C-0.52 0.78 -0.5 0.33 0 0 Z" fill="#97AE56" transform="translate(340.73 398.32) rotate(-50.24) scale(139.18 18.26)"/><path d="M0 0 C0.5 0.33 0.52 0.78 0 1 C-0.52 0.78 -0.5 0.33 0 0 Z" fill="#5E8B39" transform="translate(357.11 459.89) rotate(68.4) scale(135.54 13.68)"/><path d="M0 0 C0.5 0.33 0.52 0.78 0 1 C-0.52 0.78 -0.5 0.33 0 0 Z" fill="#97AE56" transform="translate(341.49 521.45) rotate(-52.7) scale(149.43 13.61)"/><path d="M0 0 C0.5 0.33 0.52 0.78 0 1 C-0.52 0.78 -0.5 0.33 0 0 Z" fill="#5E8B39" transform="translate(357.87 583.02) rotate(60.51) scale(154.83 13.22)"/><path d="M0 0 C0.5 0.33 0.52 0.78 0 1 C-0.52 0.78 -0.5 0.33 0 0 Z" fill="#97AE56" transform="translate(342.24 644.59) rotate(-69.22) scale(130.65 13.48)"/><path d="M0 0 C0.5 0.33 0.52 0.78 0 1 C-0.52 0.78 -0.5 0.33 0 0 Z" fill="#5E8B39" transform="translate(358.62 706.16) rotate(53.52) scale(144.84 14.47)"/><path d="M0 0 C0.5 0.33 0.52 0.78 0 1 C-0.52 0.78 -0.5 0.33 0 0 Z" fill="#97AE56" transform="translate(343 767.73) rotate(-53.54) scale(108.21 14.38)"/><path d="M0 0 C0.5 0.33 0.52 0.78 0 1 C-0.52 0.78 -0.5 0.33 0 0 Z" fill="#5E8B39" transform="translate(359.37 829.3) rotate(70.62) scale(151.81 14.1)"/><path d="M0 0 C0.5 0.33 0.52 0.78 0 1 C-0.52 0.78 -0.5 0.33 0 0 Z" fill="#97AE56" transform="translate(343.75 890.86) rotate(-54.31) scale(119.11 16.27)"/><path d="M0 0 C0.5 0.33 0.52 0.78 0 1 C-0.52 0.78 -0.5 0.33 0 0 Z" fill="#5E8B39" transform="translate(360.13 952.43) rotate(39.89) scale(146.73 14.46)"/><path d="M0 0 C0.5 0.33 0.52 0.78 0 1 C-0.52 0.78 -0.5 0.33 0 0 Z" fill="#97AE56" transform="translate(431.71 226.61) rotate(-53.43) scale(112.7 15.54)"/><path d="M0 0 C0.5 0.33 0.52 0.78 0 1 C-0.52 0.78 -0.5 0.33 0 0 Z" fill="#5E8B39" transform="translate(446.12 282.86) rotate(47.37) scale(122.2 16.91)"/><path d="M0 0 C0.5 0.33 0.52 0.78 0 1 C-0.52 0.78 -0.5 0.33 0 0 Z" fill="#97AE56" transform="translate(428.52 339.1) rotate(-76.77) scale(128.72 17.49)"/><path d="M0 0 C0.5 0.33 0.52 0.78 0 1 C-0.52 0.78 -0.5 0.33 0 0 Z" fill="#5E8B39" transform="translate(442.92 395.34) rotate(79.11) scale(139.83 14.43)"/><path d="M0 0 C0.5 0.33 0.52 0.78 0 1 C-0.52 0.78 -0.5 0.33 0 0 Z" fill="#97AE56" transform="translate(425.32 451.58) rotate(-66.22) scale(136.41 18.8)"/><path d="M0 0 C0.5 0.33 0.52 0.78 0 1 C-0.52 0.78 -0.5 0.33 0 0 Z" fill="#5E8B39" transform="translate(439.72 507.82) rotate(63.21) scale(150.59 17.52)"/><path d="M0 0 C0.5 0.33 0.52 0.78 0 1 C-0.52 0.78 -0.5 0.33 0 0 Z" fill="#97AE56" transform="translate(422.12 564.07) rotate(-49.91) scale(116.88 15.96)"/><path d="M0 0 C0.5 0.33 0.52 0.78 0 1 C-0.52 0.78 -0.5 0.33 0 0 Z" fill="#5E8B39" transform="translate(436.52 620.31) rotate(75.99) scale(123.89 14.7)"/><path d="M0 0 C0.5 0.33 0.52 0.78 0 1 C-0.52 0.78 -0.5 0.33 0 0 Z" fill="#97AE56" transform="translate(418.92 676.55) rotate(-67.06) scale(149.47 16.56)"/><path d="M0 0 C0.5 0.33 0.52 0.78 0 1 C-0.52 0.78 -0.5 0.33 0 0 Z" fill="#5E8B39" transform="translate(433.32 732.79) rotate(69.29) scale(136.37 13.2)"/><path d="M0 0 C0.5 0.33 0.52 0.78 0 1 C-0.52 0.78 -0.5 0.33 0 0 Z" fill="#97AE56" transform="translate(415.72 789.03) rotate(-51.01) scale(124.2 17.86)"/><path d="M0 0 C0.5 0.33 0.52 0.78 0 1 C-0.52 0.78 -0.5 0.33 0 0 Z" fill="#5E8B39" transform="translate(430.12 845.27) rotate(65) scale(113.57 14.9)"/><path d="M0 0 C0.5 0.33 0.52 0.78 0 1 C-0.52 0.78 -0.5 0.33 0 0 Z" fill="#97AE56" transform="translate(412.52 901.52) rotate(-41.43) scale(110.34 17.24)"/><path d="M0 0 C0.5 0.33 0.52 0.78 0 1 C-0.52 0.78 -0.5 0.33 0 0 Z" fill="#5E8B39" transform="translate(426.93 957.76) rotate(39.06) scale(121.37 17.93)"/><path d="M0 0 C0.5 0.33 0.52 0.78 0 1 C-0.52 0.78 -0.5 0.33 0 0 Z" fill="#97AE56" transform="translate(482.53 171.28) rotate(-64.51) scale(119.07 13.53)"/><path d="M0 0 C0.5 0.33 0.52 0.78 0 1 C-0.52 0.78 -0.5 0.33 0 0 Z" fill="#5E8B39" transform="translate(497.74 231.48) rotate(75.47) scale(114.53 14.05)"/><path d="M0 0 C0.5 0.33 0.52 0.78 0 1 C-0.52 0.78 -0.5 0.33 0 0 Z" fill="#97AE56" transform="translate(480.94 291.67) rotate(-52.54) scale(140.37 13.89)"/><path d="M0 0 C0.5 0.33 0.52 0.78 0 1 C-0.52 0.78 -0.5 0.33 0 0 Z" fill="#5E8B39" transform="translate(496.15 351.87) rotate(66.36) scale(138.53 13.58)"/><path d="M0 0 C0.5 0.33 0.52 0.78 0 1 C-0.52 0.78 -0.5 0.33 0 0 Z" fill="#97AE56" transform="translate(479.35 412.06) rotate(-76.5) scale(110.13 17.22)"/><path d="M0 0 C0.5 0.33 0.52 0.78 0 1 C-0.52 0.78 -0.5 0.33 0 0 Z" fill="#5E8B39" transform="translate(494.56 472.25) rotate(80.77) scale(149.07 18.95)"/><path d="M0 0 C0.5 0.33 0.52 0.78 0 1 C-0.52 0.78 -0.5 0.33 0 0 Z" fill="#97AE56" transform="translate(477.77 532.45) rotate(-50.3) scale(110.07 16.63)"/><path d="M0 0 C0.5 0.33 0.52 0.78 0 1 C-0.52 0.78 -0.5 0.33 0 0 Z" fill="#5E8B39" transform="translate(492.97 592.64) rotate(47.72) scale(116.61 13.56)"/><path d="M0 0 C0.5 0.33 0.52 0.78 0 1 C-0.52 0.78 -0.5 0.33 0 0 Z" fill="#97AE56" transform="translate(476.18 652.84) rotate(-79.63) scale(154.49 17.9)"/><path d="M0 0 C0.5 0.33 0.52 0.78 0 1 C-0.52 0.78 -0.5 0.33 0 0 Z" fill="#5E8B39" transform="translate(491.38 713.03) rotate(70.93) scale(147 17)"/><path d="M0 0 C0.5 0.33 0.52 0.78 0 1 C-0.52 0.78 -0.5 0.33 0 0 Z" fill="#97AE56" transform="translate(474.59 773.22) rotate(-60.22) scale(120.48 15.08)"/><path d="M0 0 C0.5 0.33 0.52 0.78 0 1 C-0.52 0.78 -0.5 0.33 0 0 Z" fill="#5E8B39" transform="translate(489.79 833.42) rotate(77.2) scale(145.12 13.53)"/><path d="M0 0 C0.5 0.33 0.52 0.78 0 1 C-0.52 0.78 -0.5 0.33 0 0 Z" fill="#97AE56" transform="translate(473 893.61) rotate(-76.58) scale(127.98 18.77)"/><path d="M0 0 C0.5 0.33 0.52 0.78 0 1 C-0.52 0.78 -0.5 0.33 0 0 Z" fill="#5E8B39" transform="translate(488.21 953.81) rotate(53.33) scale(132.94 14.57)"/><path d="M0 0 C0.5 0.33 0.52 0.78 0 1 C-0.52 0.78 -0.5 0.33 0 0 Z" fill="#97AE56" transform="translate(523.66 129.96) rotate(-39.08) scale(111.45 15.8)"/><path d="M0 0 C0.5 0.33 0.52 0.78 0 1 C-0.52 0.78 -0.5 0.33 0 0 Z" fill="#5E8B39" transform="translate(540.01 193.1) rotate(67.4) scale(147.23 18.57)"/><path d="M0 0 C0.5 0.33 0.52 0.78 0 1 C-0.52 0.78 -0.5 0.33 0 0 Z" fill="#97AE56" transform="translate(524.35 256.25) rotate(-39.25) scale(126.93 18.76)"/><path d="M0 0 C0.5 0.33 0.52 0.78 0 1 C-0.52 0.78 -0.5 0.33 0 0 Z" fill="#5E8B39" transform="translate(540.69 319.4) rotate(75.44) scale(148.17 15.63)"/><path d="M0 0 C0.5 0.33 0.52 0.78 0 1 C-0.52 0.78 -0.5 0.33 0 0 Z" fill="#97AE56" transform="translate(525.04 382.54) rotate(-51.73) scale(119.8 17.97)"/><path d="M0 0 C0.5 0.33 0.52 0.78 0 1 C-0.52 0.78 -0.5 0.33 0 0 Z" fill="#5E8B39" transform="translate(541.38 445.69) rotate(41.21) scale(133.82 17.22)"/><path d="M0 0 C0.5 0.33 0.52 0.78 0 1 C-0.52 0.78 -0.5 0.33 0 0 Z" fill="#97AE56" transform="translate(525.73 508.83) rotate(-72.12) scale(104.22 14.72)"/><path d="M0 0 C0.5 0.33 0.52 0.78 0 1 C-0.52 0.78 -0.5 0.33 0 0 Z" fill="#5E8B39" transform="translate(542.07 571.98) rotate(60.78) scale(119.61 17.7)"/><path d="M0 0 C0.5 0.33 0.52 0.78 0 1 C-0.52 0.78 -0.5 0.33 0 0 Z" fill="#97AE56" transform="translate(526.41 635.12) rotate(-67.08) scale(146.54 14.73)"/><path d="M0 0 C0.5 0.33 0.52 0.78 0 1 C-0.52 0.78 -0.5 0.33 0 0 Z" fill="#5E8B39" transform="translate(542.76 698.27) rotate(64.91) scale(146.99 17.63)"/><path d="M0 0 C0.5 0.33 0.52 0.78 0 1 C-0.52 0.78 -0.5 0.33 0 0 Z" fill="#97AE56" transform="translate(527.1 761.42) rotate(-38.49) scale(112.72 16.7)"/><path d="M0 0 C0.5 0.33 0.52 0.78 0 1 C-0.52 0.78 -0.5 0.33 0 0 Z" fill="#5E8B39" transform="translate(543.44 824.56) rotate(78.39) scale(131.44 18.28)"/><path d="M0 0 C0.5 0.33 0.52 0.78 0 1 C-0.52 0.78 -0.5 0.33 0 0 Z" fill="#97AE56" transform="translate(527.79 887.71) rotate(-55.89) scale(144.79 18.98)"/><path d="M0 0 C0.5 0.33 0.52 0.78 0 1 C-0.52 0.78 -0.5 0.33 0 0 Z" fill="#5E8B39" transform="translate(544.13 950.85) rotate(48.22) scale(135.53 13.13)"/></g></g><g><path d="M 114.64 1084.29 Q 125.63 633.92 133.26 183.47 L 115.99 183.04 Q 125.63 633.92 90.65 1083.71 Z" fill="#5E7A32"/><path d="M 169.54 1083.62 Q 154.96 623.73 137.01 163.94 L 119.74 164.49 Q 154.96 623.73 145.55 1084.38 Z" fill="#78923E"/><path d="M 236.74 1083.86 Q 231.58 640.48 223.06 197.13 L 205.78 197.33 Q 231.58 640.48 212.74 1084.14 Z" fill="#5E7A32"/><path d="M 308.16 1083.91 Q 304.46 580.99 297.4 78.09 L 280.12 78.22 Q 304.46 580.99 284.16 1084.09 Z" fill="#78923E"/><path d="M 364.93 1083.93 Q 361.93 592.95 355.56 101.99 L 338.28 102.1 Q 361.93 592.95 340.93 1084.07 Z" fill="#5E7A32"/><path d="M 427.33 1084.34 Q 440.23 630.65 449.77 176.86 L 432.5 176.37 Q 440.23 630.65 403.34 1083.66 Z" fill="#78923E"/><path d="M 490.49 1084.16 Q 496.84 602.8 499.83 121.4 L 482.55 121.17 Q 496.84 602.8 466.49 1083.84 Z" fill="#5E7A32"/><path d="M 548.86 1083.93 Q 546.12 581.91 540.03 79.91 L 522.75 80.01 Q 546.12 581.91 524.86 1084.07 Z" fill="#78923E"/></g><g><path d="M 89.32 1055 Q 103.72 1040 118.12 1055 L 118.12 1025 Q 103.72 1040 89.32 1025 Z" fill="#3E6B2E" opacity="0.55"/><path d="M 92.49 925 Q 106.89 910 121.29 925 L 121.29 895 Q 106.89 910 92.49 895 Z" fill="#3E6B2E" opacity="0.55"/><path d="M 95.66 795 Q 110.06 780 124.46 795 L 124.46 765 Q 110.06 780 95.66 765 Z" fill="#3E6B2E" opacity="0.55"/><path d="M 98.83 665 Q 113.23 650 127.63 665 L 127.63 635 Q 113.23 650 98.83 635 Z" fill="#3E6B2E" opacity="0.55"/><path d="M 102.01 535 Q 116.41 520 130.81 535 L 130.81 505 Q 116.41 520 102.01 505 Z" fill="#3E6B2E" opacity="0.55"/><path d="M 105.18 405 Q 119.58 390 133.98 405 L 133.98 375 Q 119.58 390 105.18 375 Z" fill="#3E6B2E" opacity="0.55"/><path d="M 108.35 275 Q 122.75 260 137.15 275 L 137.15 245 Q 122.75 260 108.35 245 Z" fill="#3E6B2E" opacity="0.55"/><path d="M 141.75 1055 Q 156.15 1040 170.55 1055 L 170.55 1025 Q 156.15 1040 141.75 1025 Z" fill="#3E6B2E" opacity="0.55"/><path d="M 137.63 925 Q 152.03 910 166.43 925 L 166.43 895 Q 152.03 910 137.63 895 Z" fill="#3E6B2E" opacity="0.55"/><path d="M 133.51 795 Q 147.91 780 162.31 795 L 162.31 765 Q 147.91 780 133.51 765 Z" fill="#3E6B2E" opacity="0.55"/><path d="M 129.38 665 Q 143.78 650 158.18 665 L 158.18 635 Q 143.78 650 129.38 635 Z" fill="#3E6B2E" opacity="0.55"/><path d="M 125.26 535 Q 139.66 520 154.06 535 L 154.06 505 Q 139.66 520 125.26 505 Z" fill="#3E6B2E" opacity="0.55"/><path d="M 121.14 405 Q 135.54 390 149.94 405 L 149.94 375 Q 135.54 390 121.14 375 Z" fill="#3E6B2E" opacity="0.55"/><path d="M 117.01 275 Q 131.41 260 145.81 275 L 145.81 245 Q 131.41 260 117.01 245 Z" fill="#3E6B2E" opacity="0.55"/><path d="M 209.83 1055 Q 224.23 1040 238.63 1055 L 238.63 1025 Q 224.23 1040 209.83 1025 Z" fill="#3E6B2E" opacity="0.55"/><path d="M 208.32 925 Q 222.72 910 237.12 925 L 237.12 895 Q 222.72 910 208.32 895 Z" fill="#3E6B2E" opacity="0.55"/><path d="M 206.8 795 Q 221.2 780 235.6 795 L 235.6 765 Q 221.2 780 206.8 765 Z" fill="#3E6B2E" opacity="0.55"/><path d="M 205.29 665 Q 219.69 650 234.09 665 L 234.09 635 Q 219.69 650 205.29 635 Z" fill="#3E6B2E" opacity="0.55"/><path d="M 203.78 535 Q 218.18 520 232.58 535 L 232.58 505 Q 218.18 520 203.78 505 Z" fill="#3E6B2E" opacity="0.55"/><path d="M 202.27 405 Q 216.67 390 231.07 405 L 231.07 375 Q 216.67 390 202.27 375 Z" fill="#3E6B2E" opacity="0.55"/><path d="M 200.75 275 Q 215.15 260 229.55 275 L 229.55 245 Q 215.15 260 200.75 245 Z" fill="#3E6B2E" opacity="0.55"/><path d="M 281.44 1055 Q 295.84 1040 310.24 1055 L 310.24 1025 Q 295.84 1040 281.44 1025 Z" fill="#3E6B2E" opacity="0.55"/><path d="M 280.48 925 Q 294.88 910 309.28 925 L 309.28 895 Q 294.88 910 280.48 895 Z" fill="#3E6B2E" opacity="0.55"/><path d="M 279.52 795 Q 293.92 780 308.32 795 L 308.32 765 Q 293.92 780 279.52 765 Z" fill="#3E6B2E" opacity="0.55"/><path d="M 278.57 665 Q 292.97 650 307.37 665 L 307.37 635 Q 292.97 650 278.57 635 Z" fill="#3E6B2E" opacity="0.55"/><path d="M 277.61 535 Q 292.01 520 306.41 535 L 306.41 505 Q 292.01 520 277.61 505 Z" fill="#3E6B2E" opacity="0.55"/><path d="M 276.66 405 Q 291.06 390 305.46 405 L 305.46 375 Q 291.06 390 276.66 375 Z" fill="#3E6B2E" opacity="0.55"/><path d="M 275.7 275 Q 290.1 260 304.5 275 L 304.5 245 Q 290.1 260 275.7 245 Z" fill="#3E6B2E" opacity="0.55"/><path d="M 274.74 145 Q 289.14 130 303.54 145 L 303.54 115 Q 289.14 130 274.74 115 Z" fill="#3E6B2E" opacity="0.55"/><path d="M 338.26 1055 Q 352.66 1040 367.06 1055 L 367.06 1025 Q 352.66 1040 338.26 1025 Z" fill="#3E6B2E" opacity="0.55"/><path d="M 337.47 925 Q 351.87 910 366.27 925 L 366.27 895 Q 351.87 910 337.47 895 Z" fill="#3E6B2E" opacity="0.55"/><path d="M 336.67 795 Q 351.07 780 365.47 795 L 365.47 765 Q 351.07 780 336.67 765 Z" fill="#3E6B2E" opacity="0.55"/><path d="M 335.88 665 Q 350.28 650 364.68 665 L 364.68 635 Q 350.28 650 335.88 635 Z" fill="#3E6B2E" opacity="0.55"/><path d="M 335.08 535 Q 349.48 520 363.88 535 L 363.88 505 Q 349.48 520 335.08 505 Z" fill="#3E6B2E" opacity="0.55"/><path d="M 334.28 405 Q 348.68 390 363.08 405 L 363.08 375 Q 348.68 390 334.28 375 Z" fill="#3E6B2E" opacity="0.55"/><path d="M 333.49 275 Q 347.89 260 362.29 275 L 362.29 245 Q 347.89 260 333.49 245 Z" fill="#3E6B2E" opacity="0.55"/><path d="M 332.69 145 Q 347.09 130 361.49 145 L 361.49 115 Q 347.09 130 332.69 115 Z" fill="#3E6B2E" opacity="0.55"/><path d="M 402.19 1055 Q 416.59 1040 430.99 1055 L 430.99 1025 Q 416.59 1040 402.19 1025 Z" fill="#3E6B2E" opacity="0.55"/><path d="M 405.88 925 Q 420.28 910 434.68 925 L 434.68 895 Q 420.28 910 405.88 895 Z" fill="#3E6B2E" opacity="0.55"/><path d="M 409.58 795 Q 423.98 780 438.38 795 L 438.38 765 Q 423.98 780 409.58 765 Z" fill="#3E6B2E" opacity="0.55"/><path d="M 413.28 665 Q 427.68 650 442.08 665 L 442.08 635 Q 427.68 650 413.28 635 Z" fill="#3E6B2E" opacity="0.55"/><path d="M 416.97 535 Q 431.37 520 445.77 535 L 445.77 505 Q 431.37 520 416.97 505 Z" fill="#3E6B2E" opacity="0.55"/><path d="M 420.67 405 Q 435.07 390 449.47 405 L 449.47 375 Q 435.07 390 420.67 375 Z" fill="#3E6B2E" opacity="0.55"/><path d="M 424.37 275 Q 438.77 260 453.17 275 L 453.17 245 Q 438.77 260 424.37 245 Z" fill="#3E6B2E" opacity="0.55"/><path d="M 464.67 1055 Q 479.07 1040 493.47 1055 L 493.47 1025 Q 479.07 1040 464.67 1025 Z" fill="#3E6B2E" opacity="0.55"/><path d="M 466.38 925 Q 480.78 910 495.18 925 L 495.18 895 Q 480.78 910 466.38 895 Z" fill="#3E6B2E" opacity="0.55"/><path d="M 468.1 795 Q 482.5 780 496.9 795 L 496.9 765 Q 482.5 780 468.1 765 Z" fill="#3E6B2E" opacity="0.55"/><path d="M 469.81 665 Q 484.21 650 498.61 665 L 498.61 635 Q 484.21 650 469.81 635 Z" fill="#3E6B2E" opacity="0.55"/><path d="M 471.53 535 Q 485.93 520 500.33 535 L 500.33 505 Q 485.93 520 471.53 505 Z" fill="#3E6B2E" opacity="0.55"/><path d="M 473.25 405 Q 487.65 390 502.05 405 L 502.05 375 Q 487.65 390 473.25 375 Z" fill="#3E6B2E" opacity="0.55"/><path d="M 474.96 275 Q 489.36 260 503.76 275 L 503.76 245 Q 489.36 260 474.96 245 Z" fill="#3E6B2E" opacity="0.55"/><path d="M 522.22 1055 Q 536.62 1040 551.02 1055 L 551.02 1025 Q 536.62 1040 522.22 1025 Z" fill="#3E6B2E" opacity="0.55"/><path d="M 521.51 925 Q 535.91 910 550.31 925 L 550.31 895 Q 535.91 910 521.51 895 Z" fill="#3E6B2E" opacity="0.55"/><path d="M 520.8 795 Q 535.2 780 549.6 795 L 549.6 765 Q 535.2 780 520.8 765 Z" fill="#3E6B2E" opacity="0.55"/><path d="M 520.09 665 Q 534.49 650 548.89 665 L 548.89 635 Q 534.49 650 520.09 635 Z" fill="#3E6B2E" opacity="0.55"/><path d="M 519.39 535 Q 533.79 520 548.19 535 L 548.19 505 Q 533.79 520 519.39 505 Z" fill="#3E6B2E" opacity="0.55"/><path d="M 518.68 405 Q 533.08 390 547.48 405 L 547.48 375 Q 533.08 390 518.68 375 Z" fill="#3E6B2E" opacity="0.55"/><path d="M 517.97 275 Q 532.37 260 546.77 275 L 546.77 245 Q 532.37 260 517.97 245 Z" fill="#3E6B2E" opacity="0.55"/><path d="M 517.26 145 Q 531.66 130 546.06 145 L 546.06 115 Q 531.66 130 517.26 115 Z" fill="#3E6B2E" opacity="0.55"/></g><g><path d="M0 0 C0.5 0.33 0.52 0.78 0 1 C-0.52 0.78 -0.5 0.33 0 0 Z" fill="#97AE56" transform="translate(115.4 233.26) rotate(-63.01) scale(113.34 17.42)"/><path d="M0 0 C0.5 0.33 0.52 0.78 0 1 C-0.52 0.78 -0.5 0.33 0 0 Z" fill="#5E8B39" transform="translate(130.04 289.02) rotate(47.39) scale(128 13.58)"/><path d="M0 0 C0.5 0.33 0.52 0.78 0 1 C-0.52 0.78 -0.5 0.33 0 0 Z" fill="#97AE56" transform="translate(112.68 344.79) rotate(-58.1) scale(137.28 17.62)"/><path d="M0 0 C0.5 0.33 0.52 0.78 0 1 C-0.52 0.78 -0.5 0.33 0 0 Z" fill="#5E8B39" transform="translate(127.32 400.56) rotate(60.69) scale(116.77 13.15)"/><path d="M0 0 C0.5 0.33 0.52 0.78 0 1 C-0.52 0.78 -0.5 0.33 0 0 Z" fill="#97AE56" transform="translate(109.96 456.33) rotate(-39.17) scale(134.29 14.76)"/><path d="M0 0 C0.5 0.33 0.52 0.78 0 1 C-0.52 0.78 -0.5 0.33 0 0 Z" fill="#5E8B39" transform="translate(124.6 512.09) rotate(44.91) scale(131.88 18.89)"/><path d="M0 0 C0.5 0.33 0.52 0.78 0 1 C-0.52 0.78 -0.5 0.33 0 0 Z" fill="#97AE56" transform="translate(107.24 567.86) rotate(-38.24) scale(119.3 13.33)"/><path d="M0 0 C0.5 0.33 0.52 0.78 0 1 C-0.52 0.78 -0.5 0.33 0 0 Z" fill="#5E8B39" transform="translate(121.88 623.63) rotate(66.03) scale(137.02 14.85)"/><path d="M0 0 C0.5 0.33 0.52 0.78 0 1 C-0.52 0.78 -0.5 0.33 0 0 Z" fill="#97AE56" transform="translate(104.52 679.4) rotate(-68.39) scale(106.82 18.01)"/><path d="M0 0 C0.5 0.33 0.52 0.78 0 1 C-0.52 0.78 -0.5 0.33 0 0 Z" fill="#5E8B39" transform="translate(119.16 735.16) rotate(54.78) scale(142.25 16.53)"/><path d="M0 0 C0.5 0.33 0.52 0.78 0 1 C-0.52 0.78 -0.5 0.33 0 0 Z" fill="#97AE56" transform="translate(101.8 790.93) rotate(-54.49) scale(111.24 16.81)"/><path d="M0 0 C0.5 0.33 0.52 0.78 0 1 C-0.52 0.78 -0.5 0.33 0 0 Z" fill="#5E8B39" transform="translate(116.43 846.7) rotate(55.72) scale(132.25 15.8)"/><path d="M0 0 C0.5 0.33 0.52 0.78 0 1 C-0.52 0.78 -0.5 0.33 0 0 Z" fill="#97AE56" transform="translate(99.07 902.47) rotate(-49.93) scale(112.98 15.89)"/><path d="M0 0 C0.5 0.33 0.52 0.78 0 1 C-0.52 0.78 -0.5 0.33 0 0 Z" fill="#5E8B39" transform="translate(113.71 958.23) rotate(43.75) scale(130.81 18.74)"/><path d="M0 0 C0.5 0.33 0.52 0.78 0 1 C-0.52 0.78 -0.5 0.33 0 0 Z" fill="#97AE56" transform="translate(121.96 214.22) rotate(-66.5) scale(142.13 15.04)"/><path d="M0 0 C0.5 0.33 0.52 0.78 0 1 C-0.52 0.78 -0.5 0.33 0 0 Z" fill="#5E8B39" transform="translate(139.77 271.34) rotate(65.86) scale(147.64 16.29)"/><path d="M0 0 C0.5 0.33 0.52 0.78 0 1 C-0.52 0.78 -0.5 0.33 0 0 Z" fill="#97AE56" transform="translate(125.58 328.47) rotate(-62.85) scale(105.74 16.98)"/><path d="M0 0 C0.5 0.33 0.52 0.78 0 1 C-0.52 0.78 -0.5 0.33 0 0 Z" fill="#5E8B39" transform="translate(143.4 385.6) rotate(67.29) scale(119 17.02)"/><path d="M0 0 C0.5 0.33 0.52 0.78 0 1 C-0.52 0.78 -0.5 0.33 0 0 Z" fill="#97AE56" transform="translate(129.21 442.73) rotate(-74.37) scale(118.99 16.31)"/><path d="M0 0 C0.5 0.33 0.52 0.78 0 1 C-0.52 0.78 -0.5 0.33 0 0 Z" fill="#5E8B39" transform="translate(147.02 499.85) rotate(52.88) scale(133.44 14.26)"/><path d="M0 0 C0.5 0.33 0.52 0.78 0 1 C-0.52 0.78 -0.5 0.33 0 0 Z" fill="#97AE56" transform="translate(132.83 556.98) rotate(-62.49) scale(140.05 18.05)"/><path d="M0 0 C0.5 0.33 0.52 0.78 0 1 C-0.52 0.78 -0.5 0.33 0 0 Z" fill="#5E8B39" transform="translate(150.64 614.11) rotate(66.1) scale(134.12 18.3)"/><path d="M0 0 C0.5 0.33 0.52 0.78 0 1 C-0.52 0.78 -0.5 0.33 0 0 Z" fill="#97AE56" transform="translate(136.46 671.24) rotate(-60.6) scale(111.64 15.65)"/><path d="M0 0 C0.5 0.33 0.52 0.78 0 1 C-0.52 0.78 -0.5 0.33 0 0 Z" fill="#5E8B39" transform="translate(154.27 728.36) rotate(56.66) scale(143.62 14.36)"/><path d="M0 0 C0.5 0.33 0.52 0.78 0 1 C-0.52 0.78 -0.5 0.33 0 0 Z" fill="#97AE56" transform="translate(140.08 785.49) rotate(-74.19) scale(106.22 16.09)"/><path d="M0 0 C0.5 0.33 0.52 0.78 0 1 C-0.52 0.78 -0.5 0.33 0 0 Z" fill="#5E8B39" transform="translate(157.89 842.62) rotate(52.54) scale(149.75 17.12)"/><path d="M0 0 C0.5 0.33 0.52 0.78 0 1 C-0.52 0.78 -0.5 0.33 0 0 Z" fill="#97AE56" transform="translate(143.7 899.75) rotate(-52.69) scale(133.79 14.87)"/><path d="M0 0 C0.5 0.33 0.52 0.78 0 1 C-0.52 0.78 -0.5 0.33 0 0 Z" fill="#5E8B39" transform="translate(161.52 956.87) rotate(41.1) scale(149.93 14.82)"/><path d="M0 0 C0.5 0.33 0.52 0.78 0 1 C-0.52 0.78 -0.5 0.33 0 0 Z" fill="#97AE56" transform="translate(207.01 247.23) rotate(-60.01) scale(121.08 17.38)"/><path d="M0 0 C0.5 0.33 0.52 0.78 0 1 C-0.52 0.78 -0.5 0.33 0 0 Z" fill="#5E8B39" transform="translate(223.64 302) rotate(50.36) scale(150.66 18.85)"/><path d="M0 0 C0.5 0.33 0.52 0.78 0 1 C-0.52 0.78 -0.5 0.33 0 0 Z" fill="#97AE56" transform="translate(208.28 356.77) rotate(-56.12) scale(106.46 13.66)"/><path d="M0 0 C0.5 0.33 0.52 0.78 0 1 C-0.52 0.78 -0.5 0.33 0 0 Z" fill="#5E8B39" transform="translate(224.92 411.54) rotate(60.62) scale(116.27 13.76)"/><path d="M0 0 C0.5 0.33 0.52 0.78 0 1 C-0.52 0.78 -0.5 0.33 0 0 Z" fill="#97AE56" transform="translate(209.55 466.31) rotate(-51.7) scale(137.8 14.98)"/><path d="M0 0 C0.5 0.33 0.52 0.78 0 1 C-0.52 0.78 -0.5 0.33 0 0 Z" fill="#5E8B39" transform="translate(226.19 521.08) rotate(61.28) scale(121.83 15.07)"/><path d="M0 0 C0.5 0.33 0.52 0.78 0 1 C-0.52 0.78 -0.5 0.33 0 0 Z" fill="#97AE56" transform="translate(210.83 575.85) rotate(-70.74) scale(152.38 13.57)"/><path d="M0 0 C0.5 0.33 0.52 0.78 0 1 C-0.52 0.78 -0.5 0.33 0 0 Z" fill="#5E8B39" transform="translate(227.47 630.62) rotate(42.07) scale(115.49 15.94)"/><path d="M0 0 C0.5 0.33 0.52 0.78 0 1 C-0.52 0.78 -0.5 0.33 0 0 Z" fill="#97AE56" transform="translate(212.1 685.39) rotate(-50.73) scale(114.32 18.9)"/><path d="M0 0 C0.5 0.33 0.52 0.78 0 1 C-0.52 0.78 -0.5 0.33 0 0 Z" fill="#5E8B39" transform="translate(228.74 740.15) rotate(43.81) scale(138.94 14.14)"/><path d="M0 0 C0.5 0.33 0.52 0.78 0 1 C-0.52 0.78 -0.5 0.33 0 0 Z" fill="#97AE56" transform="translate(213.38 794.92) rotate(-75.48) scale(144.41 13.99)"/><path d="M0 0 C0.5 0.33 0.52 0.78 0 1 C-0.52 0.78 -0.5 0.33 0 0 Z" fill="#5E8B39" transform="translate(230.01 849.69) rotate(77.95) scale(144.2 13.86)"/><path d="M0 0 C0.5 0.33 0.52 0.78 0 1 C-0.52 0.78 -0.5 0.33 0 0 Z" fill="#97AE56" transform="translate(214.65 904.46) rotate(-79.95) scale(104.27 18.91)"/><path d="M0 0 C0.5 0.33 0.52 0.78 0 1 C-0.52 0.78 -0.5 0.33 0 0 Z" fill="#5E8B39" transform="translate(231.29 959.23) rotate(80.32) scale(110.24 16.95)"/><path d="M0 0 C0.5 0.33 0.52 0.78 0 1 C-0.52 0.78 -0.5 0.33 0 0 Z" fill="#97AE56" transform="translate(281.13 128.16) rotate(-77.74) scale(138.11 17.76)"/><path d="M0 0 C0.5 0.33 0.52 0.78 0 1 C-0.52 0.78 -0.5 0.33 0 0 Z" fill="#5E8B39" transform="translate(297.6 191.43) rotate(68.6) scale(106.08 13.88)"/><path d="M0 0 C0.5 0.33 0.52 0.78 0 1 C-0.52 0.78 -0.5 0.33 0 0 Z" fill="#97AE56" transform="translate(282.06 254.71) rotate(-40.03) scale(140.88 18.73)"/><path d="M0 0 C0.5 0.33 0.52 0.78 0 1 C-0.52 0.78 -0.5 0.33 0 0 Z" fill="#5E8B39" transform="translate(298.53 317.98) rotate(81.7) scale(130.67 18.33)"/><path d="M0 0 C0.5 0.33 0.52 0.78 0 1 C-0.52 0.78 -0.5 0.33 0 0 Z" fill="#97AE56" transform="translate(282.99 381.26) rotate(-58.38) scale(129.91 14.75)"/><path d="M0 0 C0.5 0.33 0.52 0.78 0 1 C-0.52 0.78 -0.5 0.33 0 0 Z" fill="#5E8B39" transform="translate(299.46 444.53) rotate(56.57) scale(143.35 14.77)"/><path d="M0 0 C0.5 0.33 0.52 0.78 0 1 C-0.52 0.78 -0.5 0.33 0 0 Z" fill="#97AE56" transform="translate(283.92 507.8) rotate(-48.73) scale(125.87 18.36)"/><path d="M0 0 C0.5 0.33 0.52 0.78 0 1 C-0.52 0.78 -0.5 0.33 0 0 Z" fill="#5E8B39" transform="translate(300.39 571.08) rotate(65.9) scale(137.81 13.72)"/><path d="M0 0 C0.5 0.33 0.52 0.78 0 1 C-0.52 0.78 -0.5 0.33 0 0 Z" fill="#97AE56" transform="translate(284.85 634.35) rotate(-46.41) scale(153.99 13.16)"/><path d="M0 0 C0.5 0.33 0.52 0.78 0 1 C-0.52 0.78 -0.5 0.33 0 0 Z" fill="#5E8B39" transform="translate(301.32 697.63) rotate(80.88) scale(142.28 17.28)"/><path d="M0 0 C0.5 0.33 0.52 0.78 0 1 C-0.52 0.78 -0.5 0.33 0 0 Z" fill="#97AE56" transform="translate(285.78 760.9) rotate(-55.03) scale(140.29 16.43)"/><path d="M0 0 C0.5 0.33 0.52 0.78 0 1 C-0.52 0.78 -0.5 0.33 0 0 Z" fill="#5E8B39" transform="translate(302.25 824.18) rotate(68.67) scale(128.82 18.82)"/><path d="M0 0 C0.5 0.33 0.52 0.78 0 1 C-0.52 0.78 -0.5 0.33 0 0 Z" fill="#97AE56" transform="translate(286.72 887.45) rotate(-43.05) scale(123.98 17.28)"/><path d="M0 0 C0.5 0.33 0.52 0.78 0 1 C-0.52 0.78 -0.5 0.33 0 0 Z" fill="#5E8B39" transform="translate(303.18 950.73) rotate(43.3) scale(147.14 13.97)"/><path d="M0 0 C0.5 0.33 0.52 0.78 0 1 C-0.52 0.78 -0.5 0.33 0 0 Z" fill="#97AE56" transform="translate(339.23 152.05) rotate(-59.81) scale(109.75 13.04)"/><path d="M0 0 C0.5 0.33 0.52 0.78 0 1 C-0.52 0.78 -0.5 0.33 0 0 Z" fill="#5E8B39" transform="translate(355.6 213.61) rotate(70.54) scale(120.9 18.62)"/><path d="M0 0 C0.5 0.33 0.52 0.78 0 1 C-0.52 0.78 -0.5 0.33 0 0 Z" fill="#97AE56" transform="translate(339.98 275.18) rotate(-40.85) scale(142.17 18.72)"/><path d="M0 0 C0.5 0.33 0.52 0.78 0 1 C-0.52 0.78 -0.5 0.33 0 0 Z" fill="#5E8B39" transform="translate(356.36 336.75) rotate(68.79) scale(126.13 18.33)"/><path d="M0 0 C0.5 0.33 0.52 0.78 0 1 C-0.52 0.78 -0.5 0.33 0 0 Z" fill="#97AE56" transform="translate(340.73 398.32) rotate(-50.24) scale(139.18 18.26)"/><path d="M0 0 C0.5 0.33 0.52 0.78 0 1 C-0.52 0.78 -0.5 0.33 0 0 Z" fill="#5E8B39" transform="translate(357.11 459.89) rotate(68.4) scale(135.54 13.68)"/><path d="M0 0 C0.5 0.33 0.52 0.78 0 1 C-0.52 0.78 -0.5 0.33 0 0 Z" fill="#97AE56" transform="translate(341.49 521.45) rotate(-52.7) scale(149.43 13.61)"/><path d="M0 0 C0.5 0.33 0.52 0.78 0 1 C-0.52 0.78 -0.5 0.33 0 0 Z" fill="#5E8B39" transform="translate(357.87 583.02) rotate(60.51) scale(154.83 13.22)"/><path d="M0 0 C0.5 0.33 0.52 0.78 0 1 C-0.52 0.78 -0.5 0.33 0 0 Z" fill="#97AE56" transform="translate(342.24 644.59) rotate(-69.22) scale(130.65 13.48)"/><path d="M0 0 C0.5 0.33 0.52 0.78 0 1 C-0.52 0.78 -0.5 0.33 0 0 Z" fill="#5E8B39" transform="translate(358.62 706.16) rotate(53.52) scale(144.84 14.47)"/><path d="M0 0 C0.5 0.33 0.52 0.78 0 1 C-0.52 0.78 -0.5 0.33 0 0 Z" fill="#97AE56" transform="translate(343 767.73) rotate(-53.54) scale(108.21 14.38)"/><path d="M0 0 C0.5 0.33 0.52 0.78 0 1 C-0.52 0.78 -0.5 0.33 0 0 Z" fill="#5E8B39" transform="translate(359.37 829.3) rotate(70.62) scale(151.81 14.1)"/><path d="M0 0 C0.5 0.33 0.52 0.78 0 1 C-0.52 0.78 -0.5 0.33 0 0 Z" fill="#97AE56" transform="translate(343.75 890.86) rotate(-54.31) scale(119.11 16.27)"/><path d="M0 0 C0.5 0.33 0.52 0.78 0 1 C-0.52 0.78 -0.5 0.33 0 0 Z" fill="#5E8B39" transform="translate(360.13 952.43) rotate(39.89) scale(146.73 14.46)"/><path d="M0 0 C0.5 0.33 0.52 0.78 0 1 C-0.52 0.78 -0.5 0.33 0 0 Z" fill="#97AE56" transform="translate(431.71 226.61) rotate(-53.43) scale(112.7 15.54)"/><path d="M0 0 C0.5 0.33 0.52 0.78 0 1 C-0.52 0.78 -0.5 0.33 0 0 Z" fill="#5E8B39" transform="translate(446.12 282.86) rotate(47.37) scale(122.2 16.91)"/><path d="M0 0 C0.5 0.33 0.52 0.78 0 1 C-0.52 0.78 -0.5 0.33 0 0 Z" fill="#97AE56" transform="translate(428.52 339.1) rotate(-76.77) scale(128.72 17.49)"/><path d="M0 0 C0.5 0.33 0.52 0.78 0 1 C-0.52 0.78 -0.5 0.33 0 0 Z" fill="#5E8B39" transform="translate(442.92 395.34) rotate(79.11) scale(139.83 14.43)"/><path d="M0 0 C0.5 0.33 0.52 0.78 0 1 C-0.52 0.78 -0.5 0.33 0 0 Z" fill="#97AE56" transform="translate(425.32 451.58) rotate(-66.22) scale(136.41 18.8)"/><path d="M0 0 C0.5 0.33 0.52 0.78 0 1 C-0.52 0.78 -0.5 0.33 0 0 Z" fill="#5E8B39" transform="translate(439.72 507.82) rotate(63.21) scale(150.59 17.52)"/><path d="M0 0 C0.5 0.33 0.52 0.78 0 1 C-0.52 0.78 -0.5 0.33 0 0 Z" fill="#97AE56" transform="translate(422.12 564.07) rotate(-49.91) scale(116.88 15.96)"/><path d="M0 0 C0.5 0.33 0.52 0.78 0 1 C-0.52 0.78 -0.5 0.33 0 0 Z" fill="#5E8B39" transform="translate(436.52 620.31) rotate(75.99) scale(123.89 14.7)"/><path d="M0 0 C0.5 0.33 0.52 0.78 0 1 C-0.52 0.78 -0.5 0.33 0 0 Z" fill="#97AE56" transform="translate(418.92 676.55) rotate(-67.06) scale(149.47 16.56)"/><path d="M0 0 C0.5 0.33 0.52 0.78 0 1 C-0.52 0.78 -0.5 0.33 0 0 Z" fill="#5E8B39" transform="translate(433.32 732.79) rotate(69.29) scale(136.37 13.2)"/><path d="M0 0 C0.5 0.33 0.52 0.78 0 1 C-0.52 0.78 -0.5 0.33 0 0 Z" fill="#97AE56" transform="translate(415.72 789.03) rotate(-51.01) scale(124.2 17.86)"/><path d="M0 0 C0.5 0.33 0.52 0.78 0 1 C-0.52 0.78 -0.5 0.33 0 0 Z" fill="#5E8B39" transform="translate(430.12 845.27) rotate(65) scale(113.57 14.9)"/><path d="M0 0 C0.5 0.33 0.52 0.78 0 1 C-0.52 0.78 -0.5 0.33 0 0 Z" fill="#97AE56" transform="translate(412.52 901.52) rotate(-41.43) scale(110.34 17.24)"/><path d="M0 0 C0.5 0.33 0.52 0.78 0 1 C-0.52 0.78 -0.5 0.33 0 0 Z" fill="#5E8B39" transform="translate(426.93 957.76) rotate(39.06) scale(121.37 17.93)"/><path d="M0 0 C0.5 0.33 0.52 0.78 0 1 C-0.52 0.78 -0.5 0.33 0 0 Z" fill="#97AE56" transform="translate(482.53 171.28) rotate(-64.51) scale(119.07 13.53)"/><path d="M0 0 C0.5 0.33 0.52 0.78 0 1 C-0.52 0.78 -0.5 0.33 0 0 Z" fill="#5E8B39" transform="translate(497.74 231.48) rotate(75.47) scale(114.53 14.05)"/><path d="M0 0 C0.5 0.33 0.52 0.78 0 1 C-0.52 0.78 -0.5 0.33 0 0 Z" fill="#97AE56" transform="translate(480.94 291.67) rotate(-52.54) scale(140.37 13.89)"/><path d="M0 0 C0.5 0.33 0.52 0.78 0 1 C-0.52 0.78 -0.5 0.33 0 0 Z" fill="#5E8B39" transform="translate(496.15 351.87) rotate(66.36) scale(138.53 13.58)"/><path d="M0 0 C0.5 0.33 0.52 0.78 0 1 C-0.52 0.78 -0.5 0.33 0 0 Z" fill="#97AE56" transform="translate(479.35 412.06) rotate(-76.5) scale(110.13 17.22)"/><path d="M0 0 C0.5 0.33 0.52 0.78 0 1 C-0.52 0.78 -0.5 0.33 0 0 Z" fill="#5E8B39" transform="translate(494.56 472.25) rotate(80.77) scale(149.07 18.95)"/><path d="M0 0 C0.5 0.33 0.52 0.78 0 1 C-0.52 0.78 -0.5 0.33 0 0 Z" fill="#97AE56" transform="translate(477.77 532.45) rotate(-50.3) scale(110.07 16.63)"/><path d="M0 0 C0.5 0.33 0.52 0.78 0 1 C-0.52 0.78 -0.5 0.33 0 0 Z" fill="#5E8B39" transform="translate(492.97 592.64) rotate(47.72) scale(116.61 13.56)"/><path d="M0 0 C0.5 0.33 0.52 0.78 0 1 C-0.52 0.78 -0.5 0.33 0 0 Z" fill="#97AE56" transform="translate(476.18 652.84) rotate(-79.63) scale(154.49 17.9)"/><path d="M0 0 C0.5 0.33 0.52 0.78 0 1 C-0.52 0.78 -0.5 0.33 0 0 Z" fill="#5E8B39" transform="translate(491.38 713.03) rotate(70.93) scale(147 17)"/><path d="M0 0 C0.5 0.33 0.52 0.78 0 1 C-0.52 0.78 -0.5 0.33 0 0 Z" fill="#97AE56" transform="translate(474.59 773.22) rotate(-60.22) scale(120.48 15.08)"/><path d="M0 0 C0.5 0.33 0.52 0.78 0 1 C-0.52 0.78 -0.5 0.33 0 0 Z" fill="#5E8B39" transform="translate(489.79 833.42) rotate(77.2) scale(145.12 13.53)"/><path d="M0 0 C0.5 0.33 0.52 0.78 0 1 C-0.52 0.78 -0.5 0.33 0 0 Z" fill="#97AE56" transform="translate(473 893.61) rotate(-76.58) scale(127.98 18.77)"/><path d="M0 0 C0.5 0.33 0.52 0.78 0 1 C-0.52 0.78 -0.5 0.33 0 0 Z" fill="#5E8B39" transform="translate(488.21 953.81) rotate(53.33) scale(132.94 14.57)"/><path d="M0 0 C0.5 0.33 0.52 0.78 0 1 C-0.52 0.78 -0.5 0.33 0 0 Z" fill="#97AE56" transform="translate(523.66 129.96) rotate(-39.08) scale(111.45 15.8)"/><path d="M0 0 C0.5 0.33 0.52 0.78 0 1 C-0.52 0.78 -0.5 0.33 0 0 Z" fill="#5E8B39" transform="translate(540.01 193.1) rotate(67.4) scale(147.23 18.57)"/><path d="M0 0 C0.5 0.33 0.52 0.78 0 1 C-0.52 0.78 -0.5 0.33 0 0 Z" fill="#97AE56" transform="translate(524.35 256.25) rotate(-39.25) scale(126.93 18.76)"/><path d="M0 0 C0.5 0.33 0.52 0.78 0 1 C-0.52 0.78 -0.5 0.33 0 0 Z" fill="#5E8B39" transform="translate(540.69 319.4) rotate(75.44) scale(148.17 15.63)"/><path d="M0 0 C0.5 0.33 0.52 0.78 0 1 C-0.52 0.78 -0.5 0.33 0 0 Z" fill="#97AE56" transform="translate(525.04 382.54) rotate(-51.73) scale(119.8 17.97)"/><path d="M0 0 C0.5 0.33 0.52 0.78 0 1 C-0.52 0.78 -0.5 0.33 0 0 Z" fill="#5E8B39" transform="translate(541.38 445.69) rotate(41.21) scale(133.82 17.22)"/><path d="M0 0 C0.5 0.33 0.52 0.78 0 1 C-0.52 0.78 -0.5 0.33 0 0 Z" fill="#97AE56" transform="translate(525.73 508.83) rotate(-72.12) scale(104.22 14.72)"/><path d="M0 0 C0.5 0.33 0.52 0.78 0 1 C-0.52 0.78 -0.5 0.33 0 0 Z" fill="#5E8B39" transform="translate(542.07 571.98) rotate(60.78) scale(119.61 17.7)"/><path d="M0 0 C0.5 0.33 0.52 0.78 0 1 C-0.52 0.78 -0.5 0.33 0 0 Z" fill="#97AE56" transform="translate(526.41 635.12) rotate(-67.08) scale(146.54 14.73)"/><path d="M0 0 C0.5 0.33 0.52 0.78 0 1 C-0.52 0.78 -0.5 0.33 0 0 Z" fill="#5E8B39" transform="translate(542.76 698.27) rotate(64.91) scale(146.99 17.63)"/><path d="M0 0 C0.5 0.33 0.52 0.78 0 1 C-0.52 0.78 -0.5 0.33 0 0 Z" fill="#97AE56" transform="translate(527.1 761.42) rotate(-38.49) scale(112.72 16.7)"/><path d="M0 0 C0.5 0.33 0.52 0.78 0 1 C-0.52 0.78 -0.5 0.33 0 0 Z" fill="#5E8B39" transform="translate(543.44 824.56) rotate(78.39) scale(131.44 18.28)"/><path d="M0 0 C0.5 0.33 0.52 0.78 0 1 C-0.52 0.78 -0.5 0.33 0 0 Z" fill="#97AE56" transform="translate(527.79 887.71) rotate(-55.89) scale(144.79 18.98)"/><path d="M0 0 C0.5 0.33 0.52 0.78 0 1 C-0.52 0.78 -0.5 0.33 0 0 Z" fill="#5E8B39" transform="translate(544.13 950.85) rotate(48.22) scale(135.53 13.13)"/></g><g><path d="M0 0 L18 -22 L0 -12 Z" fill="#C6AE63" opacity="0.85" transform="translate(104.11 1024) rotate(-20)"/><path d="M0 0 L18 -22 L0 -12 Z" fill="#C6AE63" opacity="0.85" transform="translate(107.28 894) rotate(20)"/><path d="M0 0 L18 -22 L0 -12 Z" fill="#C6AE63" opacity="0.85" transform="translate(110.45 764) rotate(-20)"/><path d="M0 0 L18 -22 L0 -12 Z" fill="#C6AE63" opacity="0.85" transform="translate(113.63 634) rotate(20)"/><path d="M0 0 L18 -22 L0 -12 Z" fill="#C6AE63" opacity="0.85" transform="translate(155.64 1024) rotate(-20)"/><path d="M0 0 L18 -22 L0 -12 Z" fill="#C6AE63" opacity="0.85" transform="translate(151.52 894) rotate(20)"/><path d="M0 0 L18 -22 L0 -12 Z" fill="#C6AE63" opacity="0.85" transform="translate(147.4 764) rotate(-20)"/><path d="M0 0 L18 -22 L0 -12 Z" fill="#C6AE63" opacity="0.85" transform="translate(143.27 634) rotate(20)"/><path d="M0 0 L18 -22 L0 -12 Z" fill="#C6AE63" opacity="0.85" transform="translate(224.04 1024) rotate(-20)"/><path d="M0 0 L18 -22 L0 -12 Z" fill="#C6AE63" opacity="0.85" transform="translate(222.53 894) rotate(20)"/><path d="M0 0 L18 -22 L0 -12 Z" fill="#C6AE63" opacity="0.85" transform="translate(221.02 764) rotate(-20)"/><path d="M0 0 L18 -22 L0 -12 Z" fill="#C6AE63" opacity="0.85" transform="translate(219.5 634) rotate(20)"/><path d="M0 0 L18 -22 L0 -12 Z" fill="#C6AE63" opacity="0.85" transform="translate(295.72 1024) rotate(-20)"/><path d="M0 0 L18 -22 L0 -12 Z" fill="#C6AE63" opacity="0.85" transform="translate(294.76 894) rotate(20)"/><path d="M0 0 L18 -22 L0 -12 Z" fill="#C6AE63" opacity="0.85" transform="translate(293.81 764) rotate(-20)"/><path d="M0 0 L18 -22 L0 -12 Z" fill="#C6AE63" opacity="0.85" transform="translate(292.85 634) rotate(20)"/><path d="M0 0 L18 -22 L0 -12 Z" fill="#C6AE63" opacity="0.85" transform="translate(352.56 1024) rotate(-20)"/><path d="M0 0 L18 -22 L0 -12 Z" fill="#C6AE63" opacity="0.85" transform="translate(351.77 894) rotate(20)"/><path d="M0 0 L18 -22 L0 -12 Z" fill="#C6AE63" opacity="0.85" transform="translate(350.97 764) rotate(-20)"/><path d="M0 0 L18 -22 L0 -12 Z" fill="#C6AE63" opacity="0.85" transform="translate(350.18 634) rotate(20)"/><path d="M0 0 L18 -22 L0 -12 Z" fill="#C6AE63" opacity="0.85" transform="translate(417.04 1024) rotate(-20)"/><path d="M0 0 L18 -22 L0 -12 Z" fill="#C6AE63" opacity="0.85" transform="translate(420.74 894) rotate(20)"/><path d="M0 0 L18 -22 L0 -12 Z" fill="#C6AE63" opacity="0.85" transform="translate(424.43 764) rotate(-20)"/><path d="M0 0 L18 -22 L0 -12 Z" fill="#C6AE63" opacity="0.85" transform="translate(428.13 634) rotate(20)"/><path d="M0 0 L18 -22 L0 -12 Z" fill="#C6AE63" opacity="0.85" transform="translate(479.28 1024) rotate(-20)"/><path d="M0 0 L18 -22 L0 -12 Z" fill="#C6AE63" opacity="0.85" transform="translate(481 894) rotate(20)"/><path d="M0 0 L18 -22 L0 -12 Z" fill="#C6AE63" opacity="0.85" transform="translate(482.71 764) rotate(-20)"/><path d="M0 0 L18 -22 L0 -12 Z" fill="#C6AE63" opacity="0.85" transform="translate(484.43 634) rotate(20)"/><path d="M0 0 L18 -22 L0 -12 Z" fill="#C6AE63" opacity="0.85" transform="translate(536.53 1024) rotate(-20)"/><path d="M0 0 L18 -22 L0 -12 Z" fill="#C6AE63" opacity="0.85" transform="translate(535.82 894) rotate(20)"/><path d="M0 0 L18 -22 L0 -12 Z" fill="#C6AE63" opacity="0.85" transform="translate(535.12 764) rotate(-20)"/><path d="M0 0 L18 -22 L0 -12 Z" fill="#C6AE63" opacity="0.85" transform="translate(534.41 634) rotate(20)"/></g></g>
</svg>
