<svg xmlns="http://www.w3.org/2000/svg" width="39" height="248" viewBox="0 0 39 248">
<path d="M 1.81 1.16 C 1.81 1.16 3.32 1.8 3.32 1.8 C 3.32 1.8 4.91 1.18 4.91 1.18 C 4.91 1.18 5.98 1.87 5.98 1.87 C 5.98 1.87 7.18 1.13 7.18 1.13 C 7.18 1.13 8.16 1.88 8.16 1.88 C 8.16 1.88 9.55 1.16 9.55 1.16 C 9.55 1.16 10.51 2.05 10.51 2.05 C 10.51 2.05 11.49 1.1 11.49 1.1 C 11.49 1.1 12.61 2.07 12.61 2.07 C 12.61 2.07 13.74 1.12 13.74 1.12 C 13.74 1.12 14.59 1.92 14.59 1.92 C 14.59 1.92 15.6 1.05 15.6 1.05 C 15.6 1.05 16.57 1.84 16.57 1.84 C 16.57 1.84 17.78 1.02 17.78 1.02 C 17.78 1.02 18.7 1.91 18.7 1.91 C 18.7 1.91 19.57 1.14 19.57 1.14 C 19.57 1.14 20.8 2.01 20.8 2.01 C 20.8 2.01 22.19 1.08 22.19 1.08 C 22.19 1.08 23.37 1.9 23.37 1.9 C 23.37 1.9 24.7 1.1 24.7 1.1 C 24.7 1.1 26.02 2 26.02 2 C 26.02 2 27.15 1.1 27.15 1.1 C 27.15 1.1 28.02 1.94 28.02 1.94 C 28.02 1.94 29.1 1.04 29.1 1.04 C 29.1 1.04 30.04 1.84 30.04 1.84 C 30.04 1.84 31.03 1.06 31.03 1.06 C 31.03 1.06 31.84 1.7 31.84 1.7 C 31.84 1.7 32.8 1.11 32.8 1.11 C 32.8 1.11 33.76 1.89 33.76 1.89 C 33.76 1.89 34.59 1.07 34.59 1.07 C 34.59 1.07 35.53 1.72 35.53 1.72 C 35.53 1.72 36.52 1.05 36.52 1.05 C 36.52 1.05 37.45 1.74 37.45 1.74 C 37.45 1.74 38.1 1 38.1 1 C 38.1 1 38.81 1.16 38.81 1.16 C 38.81 1.16 37.13 190.13 37.13 190.13 C 37.13 190.13 38.88 246.72 38.88 246.72 C 38.88 246.72 38.08 246.26 38.08 246.26 C 38.08 246.26 37.24 246.76 37.24 246.76 C 37.24 246.76 36.34 246.2 36.34 246.2 C 36.34 246.2 34.96 246.65 34.96 246.65 C 34.96 246.65 33.49 246.22 33.49 246.22 C 33.49 246.22 31.82 246.66 31.82 246.66 C 31.82 246.66 30.6 246.21 30.6 246.21 C 30.6 246.21 29.46 246.7 29.46 246.7 C 29.46 246.7 28.44 246.27 28.44 246.27 C 28.44 246.27 27.28 246.76 27.28 246.76 C 27.28 246.76 26.28 246.31 26.28 246.31 C 26.28 246.31 25.26 246.75 25.26 246.75 C 25.26 246.75 24.26 246.29 24.26 246.29 C 24.26 246.29 23.47 246.75 23.47 246.75 C 23.47 246.75 22.51 246.29 22.51 246.29 C 22.51 246.29 21.71 246.73 21.71 246.73 C 21.71 246.73 20.81 246.26 20.81 246.26 C 20.81 246.26 19.93 246.75 19.93 246.75 C 19.93 246.75 19.12 246.2 19.12 246.2 C 19.12 246.2 17.96 246.77 17.96 246.77 C 17.96 246.77 16.93 246.22 16.93 246.22 C 16.93 246.22 15.92 246.73 15.92 246.73 C 15.92 246.73 15.05 246.18 15.05 246.18 C 15.05 246.18 13.97 246.76 13.97 246.76 C 13.97 246.76 12.99 246.13 12.99 246.13 C 12.99 246.13 12.07 246.74 12.07 246.74 C 12.07 246.74 11.2 246.2 11.2 246.2 C 11.2 246.2 10.27 246.72 10.27 246.72 C 10.27 246.72 9.02 246.14 9.02 246.14 C 9.02 246.14 7.49 246.75 7.49 246.75 C 7.49 246.75 6.51 246.02 6.51 246.02 C 6.51 246.02 5.33 246.63 5.33 246.63 C 5.33 246.63 4.5 246.09 4.5 246.09 C 4.5 246.09 3.38 246.6 3.38 246.6 C 3.38 246.6 1.81 246.16 1.81 246.16 C 1.81 246.16 1 95.63 1 95.63 C 1 95.63 1.81 1.16 1.81 1.16 Z" fill="#D2EEF4" fill-opacity="0.66" stroke-linejoin="round" stroke-linecap="round"/>
</svg>