<svg xmlns="http://www.w3.org/2000/svg" width="100" height="100" viewBox="0 0 100 100">
<style>
:root {
  --green: #024E04;
  --blue: #192443;
  --gold: #B47C16;
  --red: #3F0404;
}
</style>
<g class="layer-brows-worried" transform="rotate(17.62 41.84 51.84)">
<g class="layer-path">
<path d="M 9.65 60.32 C 16.85 51.28 24.07 44.37 30.37 42.51 C 34.01 41.44 36.86 41.45 39.53 42.34 C 39.53 42.34 43.01 44.83 41.35 49.55 C 39.69 54.28 34.94 54.94 34.94 54.94 C 28.47 46.89 11.99 59.88 5.6 68.42 C 5.6 68.42 9.65 60.32 9.65 60.32 Z" fill="#000000" stroke-linejoin="round"/>
</g>
</g>
<g class="layer-brows-worried" transform="rotate(342.2 60.43 52.9) translate(60.43 52.9) scale(-1 1) translate(-60.43 -52.9)">
<g class="layer-path">
<path d="M 28.24 61.38 C 35.44 52.34 42.66 45.44 48.97 43.57 C 52.6 42.5 55.45 42.51 58.13 43.4 C 58.13 43.4 61.61 45.89 59.94 50.62 C 58.28 55.34 53.53 56 53.53 56 C 47.07 47.95 30.58 60.94 24.19 69.48 C 24.19 69.48 28.24 61.38 28.24 61.38 Z" fill="#000000" stroke-linejoin="round"/>
</g>
</g>
</svg>