<svg xmlns="http://www.w3.org/2000/svg" width="100" height="100" viewBox="0 0 100 100">
<style>
:root {
  --green: #024E04;
  --blue: #192443;
  --gold: #B47C16;
  --red: #3F0404;
}
</style>
<g class="layer-rectangle">
<path d="M 10.71 48.75 C 10.71 37.07 12.34 30.24 23.19 30.24 C 23.19 30.24 77.19 30.12 77.19 30.12 C 88.04 30.12 88.95 37.63 88.95 49.32 C 88.95 49.32 89.24 50.27 89.24 50.27 C 89.24 61.96 90.15 69.29 79.3 69.29 C 79.3 69.29 22.14 69.43 22.14 69.43 C 9 69.75 10.32 61.46 10.32 49.77 C 10.32 49.77 10.71 48.75 10.71 48.75 Z" fill="#000000" stroke-linejoin="round"/>
</g>
<g class="layer-rectangle">
<rect x="26.66" y="33.51" width="11.06" height="16.16" rx="3" fill="#FFFFFF"/>
</g>
<g class="layer-rectangle">
<rect x="26.66" y="50" width="11.06" height="16.16" rx="3" fill="#FFFFFF"/>
</g>
<g class="layer-rectangle">
<rect x="14.78" y="33.51" width="11.06" height="16.16" rx="3" fill="#FFFFFF"/>
</g>
<g class="layer-rectangle">
<rect x="14.78" y="50" width="11.06" height="16.16" rx="3" fill="#FFFFFF"/>
</g>
<g class="layer-rectangle">
<rect x="38.53" y="32.08" width="11.06" height="17.6" rx="3" fill="#FFFFFF"/>
</g>
<g class="layer-rectangle">
<rect x="38.53" y="50" width="11.06" height="16.16" rx="3" fill="#FFFFFF"/>
</g>
<g class="layer-rectangle">
<rect x="50.41" y="32.08" width="11.06" height="17.6" rx="3" fill="#FFFFFF"/>
</g>
<g class="layer-rectangle">
<rect x="50.41" y="50" width="11.06" height="16.16" rx="3" fill="#FFFFFF"/>
</g>
<g class="layer-rectangle">
<rect x="62.28" y="33.51" width="11.06" height="16.16" rx="3" fill="#FFFFFF"/>
</g>
<g class="layer-rectangle">
<rect x="62.28" y="50" width="11.06" height="16.16" rx="3" fill="#FFFFFF"/>
</g>
<g class="layer-rectangle">
<rect x="74.16" y="33.51" width="11.06" height="16.16" rx="3" fill="#FFFFFF"/>
</g>
<g class="layer-rectangle">
<rect x="74.16" y="50" width="11.06" height="16.16" rx="3" fill="#FFFFFF"/>
</g>
</svg>